<?xml version="1.0" encoding="UTF-8"?>
<!--Generator: Apple Native CoreSVG 341-->
<!DOCTYPE svg
PUBLIC "-//W3C//DTD SVG 1.1//EN"
       "http://www.w3.org/Graphics/SVG/1.1/DTD/svg11.dtd">
<svg version="1.1" xmlns="http://www.w3.org/2000/svg" xmlns:xlink="http://www.w3.org/1999/xlink" viewBox="0 0 3300 2200">
 <!--glyph: "", point size: 100.0, font version: "21.0d4e1", template writer version: "138.0.0"-->
 <style>.defaults {-sfsymbols-variable-value-mode:color;-sfsymbols-draw-reverses-motion-groups:true}

.monochrome-0 {-sfsymbols-motion-group:1;-sfsymbols-layer-tags:-5cd3586ff27f8e66 581453b1d7efba7 fish.fill}
.monochrome-1 {opacity:0.0;-sfsymbols-clear-behind:true;-sfsymbols-motion-group:0;-sfsymbols-layer-tags:581453b1d7efba7 _badge plus}
.monochrome-2 {-sfsymbols-motion-group:0;-sfsymbols-always-pulses:true;-sfsymbols-layer-tags:581453b1d7efba7 _badge plus}
.monochrome-3 {opacity:0.0;-sfsymbols-clear-behind:true;-sfsymbols-motion-group:0;-sfsymbols-always-pulses:true;-sfsymbols-layer-tags:581453b1d7efba7 _badge plus}

.multicolor-0:tintColor {-sfsymbols-motion-group:1;-sfsymbols-layer-tags:-5cd3586ff27f8e66 581453b1d7efba7 fish.fill}
.multicolor-1:tintColor {opacity:0.0;-sfsymbols-clear-behind:true;-sfsymbols-motion-group:0;-sfsymbols-layer-tags:581453b1d7efba7 _badge plus}
.multicolor-2:systemGreenColor {-sfsymbols-motion-group:0;-sfsymbols-always-pulses:true;-sfsymbols-layer-tags:581453b1d7efba7 _badge plus}
.multicolor-3:white {-sfsymbols-motion-group:0;-sfsymbols-always-pulses:true;-sfsymbols-layer-tags:581453b1d7efba7 _badge plus}

.hierarchical-0:secondary {-sfsymbols-motion-group:1;-sfsymbols-layer-tags:-5cd3586ff27f8e66 581453b1d7efba7 fish.fill}
.hierarchical-1:primary {opacity:0.0;-sfsymbols-clear-behind:true;-sfsymbols-motion-group:0;-sfsymbols-layer-tags:581453b1d7efba7 _badge plus}
.hierarchical-2:primary {-sfsymbols-motion-group:0;-sfsymbols-always-pulses:true;-sfsymbols-layer-tags:581453b1d7efba7 _badge plus}
.hierarchical-3:primary {opacity:0.0;-sfsymbols-clear-behind:true;-sfsymbols-motion-group:0;-sfsymbols-always-pulses:true;-sfsymbols-layer-tags:581453b1d7efba7 _badge plus}

.SFSymbolsPreviewWireframe {fill:none;opacity:1.0;stroke:black;stroke-width:0.5}
</style>
 <g id="Notes">
  <rect height="2200" id="artboard" style="fill:white;opacity:1" width="3300" x="0" y="0"/>
  <line style="fill:none;stroke:black;opacity:1;stroke-width:0.5;" x1="263" x2="3036" y1="292" y2="292"/>
  <text style="stroke:none;fill:black;font-family:sans-serif;font-size:13;font-weight:bold;" transform="matrix(1 0 0 1 263 322)">Weight/Scale Variations</text>
  <text style="stroke:none;fill:black;font-family:sans-serif;font-size:13;text-anchor:middle;" transform="matrix(1 0 0 1 559.711 322)">Ultralight</text>
  <text style="stroke:none;fill:black;font-family:sans-serif;font-size:13;text-anchor:middle;" transform="matrix(1 0 0 1 856.422 322)">Thin</text>
  <text style="stroke:none;fill:black;font-family:sans-serif;font-size:13;text-anchor:middle;" transform="matrix(1 0 0 1 1153.13 322)">Light</text>
  <text style="stroke:none;fill:black;font-family:sans-serif;font-size:13;text-anchor:middle;" transform="matrix(1 0 0 1 1449.84 322)">Regular</text>
  <text style="stroke:none;fill:black;font-family:sans-serif;font-size:13;text-anchor:middle;" transform="matrix(1 0 0 1 1746.56 322)">Medium</text>
  <text style="stroke:none;fill:black;font-family:sans-serif;font-size:13;text-anchor:middle;" transform="matrix(1 0 0 1 2043.27 322)">Semibold</text>
  <text style="stroke:none;fill:black;font-family:sans-serif;font-size:13;text-anchor:middle;" transform="matrix(1 0 0 1 2339.98 322)">Bold</text>
  <text style="stroke:none;fill:black;font-family:sans-serif;font-size:13;text-anchor:middle;" transform="matrix(1 0 0 1 2636.69 322)">Heavy</text>
  <text style="stroke:none;fill:black;font-family:sans-serif;font-size:13;text-anchor:middle;" transform="matrix(1 0 0 1 2933.4 322)">Black</text>
  <line style="fill:none;stroke:black;opacity:1;stroke-width:0.5;" x1="263" x2="3036" y1="1903" y2="1903"/>
  <g transform="matrix(0.2 0 0 0.2 263 1933)">
   <path d="m46.2402 4.15039c21.7773 0 39.4531-17.627 39.4531-39.4043s-17.6758-39.4043-39.4531-39.4043c-21.7285 0-39.4043 17.627-39.4043 39.4043s17.6758 39.4043 39.4043 39.4043Zm0-7.42188c-17.6758 0-31.9336-14.3066-31.9336-31.9824s14.2578-31.9824 31.9336-31.9824 31.9824 14.3066 31.9824 31.9824-14.3066 31.9824-31.9824 31.9824Zm3.61328-17.7734v-28.4668c0-2.24609-1.46484-3.75977-3.71094-3.75977-2.14844 0-3.61328 1.51367-3.61328 3.75977v28.4668c0 2.19727 1.46484 3.71094 3.61328 3.71094 2.24609 0 3.71094-1.51367 3.71094-3.71094Zm-17.8223-10.5957h28.418c2.19727 0 3.71094-1.46484 3.71094-3.61328 0-2.19727-1.51367-3.71094-3.71094-3.71094h-28.418c-2.24609 0-3.75977 1.51367-3.75977 3.71094 0 2.14844 1.51367 3.61328 3.75977 3.61328Z"/>
  </g>
  <g transform="matrix(0.2 0 0 0.2 281.506 1933)">
   <path d="m58.5449 14.5508c27.4902 0 49.8047-22.3145 49.8047-49.8047s-22.3145-49.8047-49.8047-49.8047-49.8047 22.3145-49.8047 49.8047 22.3145 49.8047 49.8047 49.8047Zm0-8.30078c-22.9492 0-41.5039-18.5547-41.5039-41.5039s18.5547-41.5039 41.5039-41.5039 41.5039 18.5547 41.5039 41.5039-18.5547 41.5039-41.5039 41.5039Zm4.05273-23.0957v-36.9141c0-2.49023-1.70898-4.19922-4.15039-4.19922-2.39258 0-4.05273 1.70898-4.05273 4.19922v36.9141c0 2.44141 1.66016 4.15039 4.05273 4.15039 2.44141 0 4.15039-1.66016 4.15039-4.15039Zm-22.5586-14.4043h36.9629c2.44141 0 4.15039-1.61133 4.15039-4.00391 0-2.44141-1.70898-4.15039-4.15039-4.15039h-36.9629c-2.49023 0-4.15039 1.70898-4.15039 4.15039 0 2.39258 1.66016 4.00391 4.15039 4.00391Z"/>
  </g>
  <g transform="matrix(0.2 0 0 0.2 304.924 1933)">
   <path d="m74.8535 28.3203c35.1074 0 63.623-28.4668 63.623-63.5742s-28.5156-63.623-63.623-63.623-63.5742 28.5156-63.5742 63.623 28.4668 63.5742 63.5742 63.5742Zm0-9.08203c-30.127 0-54.4922-24.3652-54.4922-54.4922s24.3652-54.4922 54.4922-54.4922 54.4922 24.3652 54.4922 54.4922-24.3652 54.4922-54.4922 54.4922Zm4.44336-30.3223v-48.4863c0-2.73438-1.85547-4.63867-4.54102-4.63867-2.58789 0-4.44336 1.9043-4.44336 4.63867v48.4863c0 2.68555 1.85547 4.58984 4.44336 4.58984 2.68555 0 4.54102-1.85547 4.54102-4.58984Zm-28.7109-19.7754h48.4863c2.68555 0 4.58984-1.80664 4.58984-4.39453 0-2.73438-1.85547-4.58984-4.58984-4.58984h-48.4863c-2.73438 0-4.58984 1.85547-4.58984 4.58984 0 2.58789 1.85547 4.39453 4.58984 4.39453Z"/>
  </g>
  <text style="stroke:none;fill:black;font-family:sans-serif;font-size:13;font-weight:bold;" transform="matrix(1 0 0 1 263 1953)">Design Variations</text>
  <text style="stroke:none;fill:black;font-family:sans-serif;font-size:13;" transform="matrix(1 0 0 1 263 1971)">Symbols are supported in up to nine weights and three scales.</text>
  <text style="stroke:none;fill:black;font-family:sans-serif;font-size:13;" transform="matrix(1 0 0 1 263 1989)">For optimal layout with text and other symbols, vertically align</text>
  <text style="stroke:none;fill:black;font-family:sans-serif;font-size:13;" transform="matrix(1 0 0 1 263 2007)">symbols with the adjacent text.</text>
  <line style="fill:none;stroke:#00AEEF;stroke-width:0.5;opacity:1.0;" x1="776" x2="776" y1="1919" y2="1933"/>
  <g transform="matrix(0.2 0 0 0.2 776 1933)">
   <path d="m16.5527 0.78125c2.58789 0 3.85742-0.976562 4.78516-3.71094l20.5566-57.5195h0.244141l20.6055 57.5195c0.927734 2.73438 2.19727 3.71094 4.73633 3.71094 2.58789 0 4.24805-1.5625 4.24805-4.00391 0-0.830078-0.146484-1.61133-0.537109-2.63672l-22.9004-60.9863c-1.12305-2.97852-3.125-4.49219-6.25-4.49219-3.02734 0-5.07812 1.46484-6.15234 4.44336l-22.9004 61.084c-0.390625 1.02539-0.537109 1.80664-0.537109 2.63672 0 2.44141 1.5625 3.95508 4.10156 3.95508Zm10.2051-20.9473h30.6641c2.00195 0 3.66211-1.66016 3.66211-3.66211 0-2.05078-1.66016-3.66211-3.66211-3.66211h-30.6641c-2.00195 0-3.66211 1.61133-3.66211 3.66211 0 2.00195 1.66016 3.66211 3.66211 3.66211Z"/>
  </g>
  <line style="fill:none;stroke:#00AEEF;stroke-width:0.5;opacity:1.0;" x1="792.836" x2="792.836" y1="1919" y2="1933"/>
  <text style="stroke:none;fill:black;font-family:sans-serif;font-size:13;font-weight:bold;" transform="matrix(1 0 0 1 776 1953)">Margins</text>
  <text style="stroke:none;fill:black;font-family:sans-serif;font-size:13;" transform="matrix(1 0 0 1 776 1971)">Leading and trailing margins on the left and right side of each symbol</text>
  <text style="stroke:none;fill:black;font-family:sans-serif;font-size:13;" transform="matrix(1 0 0 1 776 1989)">can be adjusted by modifying the x-location of the margin guidelines.</text>
  <text style="stroke:none;fill:black;font-family:sans-serif;font-size:13;" transform="matrix(1 0 0 1 776 2007)">Modifications are automatically applied proportionally to all</text>
  <text style="stroke:none;fill:black;font-family:sans-serif;font-size:13;" transform="matrix(1 0 0 1 776 2025)">scales and weights.</text>
  <g transform="matrix(0.2 0 0 0.2 1289 1933)">
   <path d="m14.209 13.1348 7.86133 7.86133c4.29688 4.39453 9.32617 4.10156 13.8672-1.02539l60.6934-68.2129-4.88281-4.88281-60.2539 67.6758c-1.80664 1.95312-3.4668 2.44141-5.81055 0.0976562l-5.17578-5.12695c-2.29492-2.29492-1.80664-3.95508 0.195312-5.81055l67.4805-62.1582-4.88281-4.83398-68.0664 62.5977c-4.98047 4.58984-5.32227 9.47266-1.02539 13.8184Zm44.873-97.4609c-2.05078 2.00195-2.24609 4.88281-1.07422 6.78711 1.12305 1.80664 3.4668 3.02734 6.5918 2.24609 5.85938-1.66016 12.5977-2.39258 18.8965 0.927734l-2.68555 7.12891c-1.61133 4.00391-0.732422 6.88477 1.70898 9.42383l10.2539 10.3027c2.34375 2.39258 4.54102 2.44141 7.08008 1.95312l4.44336-0.732422 2.58789 2.53906-0.195312 2.24609c-0.0976562 2.29492 0.537109 4.29688 2.7832 6.49414l3.36914 3.32031c2.29492 2.29492 5.51758 2.49023 7.8125 0.195312l12.9883-13.0371c2.29492-2.34375 2.14844-5.37109-0.195312-7.66602l-3.41797-3.41797c-2.19727-2.19727-4.05273-3.02734-6.34766-2.88086l-2.34375 0.244141-2.44141-2.44141 1.02539-4.6875c0.634766-2.73438-0.244141-4.98047-2.88086-7.61719l-11.2793-11.1816c-12.9395-12.8418-35.5957-11.0352-46.6797-0.146484Zm7.08008 2.05078c8.78906-6.39648 25.9766-5.66406 33.6914 1.95312l12.3047 12.207c1.02539 1.02539 1.2207 1.80664 0.927734 3.32031l-1.46484 6.64062 6.73828 6.68945 4.39453-0.244141c1.12305-0.0488281 1.51367 0.0488281 2.34375 0.878906l2.53906 2.49023-10.8398 10.8398-2.49023-2.49023c-0.830078-0.878906-0.976562-1.2207-0.927734-2.39258l0.292969-4.3457-6.68945-6.73828-6.83594 1.17188c-1.41602 0.292969-2.05078 0.195312-3.17383-0.878906l-8.93555-8.88672c-1.07422-1.02539-1.17188-1.70898-0.488281-3.36914l4.58984-11.4746c-6.10352-6.34766-17.041-7.51953-25.5859-4.58984-0.683594 0.244141-0.927734-0.390625-0.390625-0.78125Z"/>
  </g>
  <text style="stroke:none;fill:black;font-family:sans-serif;font-size:13;font-weight:bold;" transform="matrix(1 0 0 1 1289 1953)">Exporting</text>
  <text style="stroke:none;fill:black;font-family:sans-serif;font-size:13;" transform="matrix(1 0 0 1 1289 1971)">Symbols should be outlined when exporting to ensure the</text>
  <text style="stroke:none;fill:black;font-family:sans-serif;font-size:13;" transform="matrix(1 0 0 1 1289 1989)">design is preserved when submitting to Xcode.</text>
  <text id="template-version" style="stroke:none;fill:black;font-family:sans-serif;font-size:13;text-anchor:end;" transform="matrix(1 0 0 1 3036 1933)">Template v.6.0</text>
  <text style="stroke:none;fill:black;font-family:sans-serif;font-size:13;text-anchor:end;" transform="matrix(1 0 0 1 3036 1951)">Requires Xcode 16 or greater</text>
  <text id="descriptive-name" style="stroke:none;fill:black;font-family:sans-serif;font-size:13;text-anchor:end;" transform="matrix(1 0 0 1 3036 1969)">Generated from </text>
  <text style="stroke:none;fill:black;font-family:sans-serif;font-size:13;text-anchor:end;" transform="matrix(1 0 0 1 3036 1987)">Typeset at 100.0 points</text>
  <text style="stroke:none;fill:black;font-family:sans-serif;font-size:13;" transform="matrix(1 0 0 1 263 726)">Small</text>
  <text style="stroke:none;fill:black;font-family:sans-serif;font-size:13;" transform="matrix(1 0 0 1 263 1156)">Medium</text>
  <text style="stroke:none;fill:black;font-family:sans-serif;font-size:13;" transform="matrix(1 0 0 1 263 1586)">Large</text>
 </g>
 <g id="Guides">
  <g id="H-reference" style="fill:#27AAE1;stroke:none;" transform="matrix(1 0 0 1 339 696)">
   <path d="M0.993654 0L3.63775 0L29.3281-67.1323L30.0303-67.1323L30.0303-70.459L28.1226-70.459ZM11.6885-24.4799L46.9815-24.4799L46.2315-26.7285L12.4385-26.7285ZM55.1196 0L57.7637 0L30.6382-70.459L29.4326-70.459L29.4326-67.1323Z"/>
  </g>
  <line id="Baseline-S" style="fill:none;stroke:#27AAE1;opacity:1;stroke-width:0.5;" x1="263" x2="3036" y1="696" y2="696"/>
  <line id="Capline-S" style="fill:none;stroke:#27AAE1;opacity:1;stroke-width:0.5;" x1="263" x2="3036" y1="625.541" y2="625.541"/>
  <g id="H-reference" style="fill:#27AAE1;stroke:none;" transform="matrix(1 0 0 1 339 1126)">
   <path d="M0.993654 0L3.63775 0L29.3281-67.1323L30.0303-67.1323L30.0303-70.459L28.1226-70.459ZM11.6885-24.4799L46.9815-24.4799L46.2315-26.7285L12.4385-26.7285ZM55.1196 0L57.7637 0L30.6382-70.459L29.4326-70.459L29.4326-67.1323Z"/>
  </g>
  <line id="Baseline-M" style="fill:none;stroke:#27AAE1;opacity:1;stroke-width:0.5;" x1="263" x2="3036" y1="1126" y2="1126"/>
  <line id="Capline-M" style="fill:none;stroke:#27AAE1;opacity:1;stroke-width:0.5;" x1="263" x2="3036" y1="1055.54" y2="1055.54"/>
  <g id="H-reference" style="fill:#27AAE1;stroke:none;" transform="matrix(1 0 0 1 339 1556)">
   <path d="M0.993654 0L3.63775 0L29.3281-67.1323L30.0303-67.1323L30.0303-70.459L28.1226-70.459ZM11.6885-24.4799L46.9815-24.4799L46.2315-26.7285L12.4385-26.7285ZM55.1196 0L57.7637 0L30.6382-70.459L29.4326-70.459L29.4326-67.1323Z"/>
  </g>
  <line id="Baseline-L" style="fill:none;stroke:#27AAE1;opacity:1;stroke-width:0.5;" x1="263" x2="3036" y1="1556" y2="1556"/>
  <line id="Capline-L" style="fill:none;stroke:#27AAE1;opacity:1;stroke-width:0.5;" x1="263" x2="3036" y1="1485.54" y2="1485.54"/>
  <line id="right-margin-Black-S" style="fill:none;stroke:#FF3B30;stroke-width:0.5;opacity:1.0;" x1="3005.59" x2="3005.59" y1="600.785" y2="720.121"/>
  <line id="left-margin-Black-S" style="fill:none;stroke:#00AEEF;stroke-width:0.5;opacity:1.0;" x1="2861.21" x2="2861.21" y1="600.785" y2="720.121"/>
  <line id="right-margin-Regular-S" style="fill:none;stroke:#FF3B30;stroke-width:0.5;opacity:1.0;" x1="1513.91" x2="1513.91" y1="600.785" y2="720.121"/>
  <line id="left-margin-Regular-S" style="fill:none;stroke:#00AEEF;stroke-width:0.5;opacity:1.0;" x1="1385.78" x2="1385.78" y1="600.785" y2="720.121"/>
  <line id="right-margin-Ultralight-S" style="fill:none;stroke:#FF3B30;stroke-width:0.5;opacity:1.0;" x1="617.575" x2="617.575" y1="600.785" y2="720.121"/>
  <line id="left-margin-Ultralight-S" style="fill:none;stroke:#00AEEF;stroke-width:0.5;opacity:1.0;" x1="501.847" x2="501.847" y1="600.785" y2="720.121"/>
 </g>
 <g id="Symbols">
  <g id="Black-S" transform="matrix(1 0 0 1 2861.21 696)">
   <path class="monochrome-0 multicolor-0:tintColor hierarchical-0:secondary SFSymbolsPreviewWireframe" d="M9.86328-8.39844C10.2051-5.17578 12.5977-3.22266 15.7715-3.27148C26.0254-3.41797 34.8633-7.95898 42.4805-16.0156C49.707-9.375 57.8613-5.12695 66.3574-2.7832L65.0879 7.56836C64.4531 12.5977 67.627 16.1133 73.4863 15.1367C84.7168 13.4766 97.4121 5.0293 104.15-4.6875C120.117-10.0586 134.619-20.3125 134.619-33.1055C134.619-46.0449 119.873-56.2988 103.76-61.6699C97.9004-79.7363 74.1699-87.793 57.2266-78.418C54.248-76.8555 53.5645-73.877 55.957-70.7031C58.8867-66.7969 60.0586-64.502 60.7422-61.6211C54.248-59.082 48.0957-55.3711 42.4805-50.2441C34.8633-58.252 26.0254-62.793 15.7715-62.9883C12.5977-63.0371 10.2051-61.084 9.86328-57.8125C9.0332-48.9746 12.6465-39.502 18.5059-33.1055C12.6465-26.7578 9.0332-17.2852 9.86328-8.39844ZM108.887-29.9316C106.055-29.9316 103.662-32.3242 103.662-35.1562C103.662-37.9883 106.055-40.3809 108.887-40.3809C111.719-40.3809 114.111-37.9883 114.111-35.1562C114.111-32.3242 111.719-29.9316 108.887-29.9316Z"/>
   <path class="monochrome-1 multicolor-1:tintColor hierarchical-1:primary SFSymbolsPreviewWireframe" d="M129.942 20.2491C144.884 20.2491 157.237 7.84665 157.237-7.09475C157.237-22.0361 144.884-34.3408 129.942-34.3408C115.001-34.3408 102.647-22.0361 102.647-7.09475C102.647 7.84665 115.001 20.2491 129.942 20.2491Z"/>
   <path class="monochrome-2 multicolor-2:systemGreenColor hierarchical-2:primary SFSymbolsPreviewWireframe" d="M129.942 13.9014C141.417 13.9014 150.89 4.33105 150.89-7.09475C150.89-18.5205 141.417-27.9931 129.942-27.9931C118.468-27.9931 108.995-18.5205 108.995-7.09475C108.995 4.33105 118.468 13.9014 129.942 13.9014Z"/>
   <path class="monochrome-3 multicolor-3:white hierarchical-3:primary SFSymbolsPreviewWireframe" d="M129.942 6.96775C127.598 6.96775 126.036 5.40525 126.036 3.11035L126.036-3.13965L119.884-3.13965C117.589-3.13965 115.977-4.70215 115.977-7.04595C115.977-9.38965 117.491-10.9521 119.884-10.9521L126.036-10.9521L126.036-17.0556C126.036-19.3505 127.598-20.9619 129.942-20.9619C132.286-20.9619 133.848-19.4482 133.848-17.0556L133.848-10.9521L140.05-10.9521C142.345-10.9521 143.907-9.38965 143.907-7.04595C143.907-4.70215 142.345-3.13965 140.05-3.13965L133.848-3.13965L133.848 3.11035C133.848 5.40525 132.286 6.96775 129.942 6.96775Z"/>
  </g>
  <g id="Regular-S" transform="matrix(1 0 0 1 1385.78 696)">
   <path class="monochrome-0 multicolor-0:tintColor hierarchical-0:secondary SFSymbolsPreviewWireframe" d="M9.86328-11.2793C10.0098-9.52148 11.2305-8.54492 12.9883-8.59375C22.3145-8.74023 30.2246-13.1348 37.0605-20.9961C44.2383-13.916 52.5391-9.61914 61.1816-7.61719L59.8145 3.51562C59.4238 6.73828 61.1328 8.59375 64.8926 8.00781C74.6094 6.49414 85.8398-0.927734 91.4551-9.42383C105.518-14.0137 118.359-22.7539 118.359-33.4473C118.359-43.8477 106.104-52.4902 92.3828-57.1777C87.793-73.877 65.7715-81.6895 50.2441-73.0469C48.4863-72.168 48.2422-70.752 49.707-68.75C53.2715-64.0137 54.3945-61.2793 55.0781-57.4219C48.6328-55.0293 42.5781-51.2695 37.0605-45.8496C30.2246-53.7598 22.3145-58.1055 12.9883-58.252C11.2305-58.3008 10.0098-57.3242 9.86328-55.5664C9.08203-47.4609 12.793-38.6719 18.5547-33.4473C12.793-28.2227 9.08203-19.4336 9.86328-11.2793ZM97.3145-30.957C94.9707-30.957 92.9688-32.9102 92.9688-35.2539C92.9688-37.5977 94.9707-39.5508 97.3145-39.5508C99.6582-39.5508 101.611-37.5977 101.611-35.2539C101.611-32.9102 99.6582-30.957 97.3145-30.957Z"/>
   <path class="monochrome-1 multicolor-1:tintColor hierarchical-1:primary SFSymbolsPreviewWireframe" d="M115.317 18.3447C129.136 18.3447 140.708 6.7725 140.708-7.0459C140.708-20.9619 129.233-32.4365 115.317-32.4365C101.352-32.4365 89.9264-20.9619 89.9264-7.0459C89.9264 6.919 101.352 18.3447 115.317 18.3447Z"/>
   <path class="monochrome-2 multicolor-2:systemGreenColor hierarchical-2:primary SFSymbolsPreviewWireframe" d="M115.317 12.6318C125.962 12.6318 134.995 3.6963 134.995-7.0459C134.995-17.8369 126.108-26.7236 115.317-26.7236C104.526-26.7236 95.5904-17.8369 95.5904-7.0459C95.5904 3.794 104.526 12.6318 115.317 12.6318Z"/>
   <path class="monochrome-3 multicolor-3:white hierarchical-3:primary SFSymbolsPreviewWireframe" d="M115.317 5.21C113.754 5.21 112.778 4.1846 112.778 2.6709L112.778-4.5068L105.6-4.5068C104.086-4.5068 103.061-5.5322 103.061-7.0459C103.061-8.5596 104.086-9.585 105.6-9.585L112.778-9.585L112.778-16.7627C112.778-18.2764 113.754-19.3018 115.317-19.3018C116.831-19.3018 117.856-18.2764 117.856-16.7627L117.856-9.585L125.034-9.585C126.548-9.585 127.524-8.5596 127.524-7.0459C127.524-5.5322 126.548-4.5068 125.034-4.5068L117.856-4.5068L117.856 2.6709C117.856 4.1846 116.831 5.21 115.317 5.21Z"/>
  </g>
  <g id="Ultralight-S" transform="matrix(1 0 0 1 501.847 696)">
   <path class="monochrome-0 multicolor-0:tintColor hierarchical-0:secondary SFSymbolsPreviewWireframe" d="M9.86328-14.0039C9.96436-12.9726 10.2769-12.7226 11.3535-12.726C19.9531-12.9179 26.9097-16.9492 33.2007-24.6743C40.1514-17.5034 48.1797-13.3427 56.8223-11.6132L55.5459-1.43404C55.3824-0.0731885 56.274 0.465396 57.8086 0.197327C66.254-1.13471 74.669-6.05904 79.921-12.3301C93.3023-15.7847 105.962-24.0254 105.962-34.0376C105.962-42.9849 95.9317-50.4922 84.2545-54.4986C78.8018-68.9273 59.2325-75.1959 45.3399-67.4615C44.3086-66.9004 44.3824-65.8931 45.0752-64.981C48.2764-60.7442 49.5811-58.0098 50.3101-54.7427C44.1372-52.4409 38.355-48.772 33.2007-43.3975C26.9097-51.1714 19.9531-55.1992 11.3535-55.3457C10.2769-55.3491 9.96436-55.0991 9.86328-54.0679C9.08203-46.5073 12.793-38.5811 18.4639-34.0376C12.793-29.585 9.08203-21.5679 9.86328-14.0039ZM88.5504-32.501C87.024-32.501 85.794-33.7275 85.794-35.2539C85.794-36.7803 87.024-38.0068 88.5504-38.0068C90.0767-38.0068 91.3033-36.7803 91.3033-35.2539C91.3033-33.7275 90.0767-32.501 88.5504-32.501Z"/>
   <path class="monochrome-1 multicolor-1:tintColor hierarchical-1:primary SFSymbolsPreviewWireframe" d="M104.178 14.3033C115.816 14.3033 125.527 4.68365 125.527-7.04585C125.527-18.7821 115.868-28.395 104.178-28.395C92.4833-28.395 82.7831-18.7367 82.7831-7.04585C82.7831 4.69395 92.4833 14.3033 104.178 14.3033Z"/>
   <path class="monochrome-2 multicolor-2:systemGreenColor hierarchical-2:primary SFSymbolsPreviewWireframe" d="M104.178 11.2242C114.141 11.2242 122.447 3.01515 122.447-7.04585C122.447-17.1103 114.196-25.3158 104.178-25.3158C94.1586-25.3158 85.8588-17.0649 85.8588-7.04585C85.8588 3.02205 94.1586 11.2242 104.178 11.2242Z"/>
   <path class="monochrome-3 multicolor-3:white hierarchical-3:primary SFSymbolsPreviewWireframe" d="M104.178 4.84675C103.206 4.84675 102.638 4.18465 102.638 3.30665L102.638-5.55125L93.7797-5.55125C92.9926-5.55125 92.2851-6.07705 92.2851-7.04585C92.2851-8.01465 92.9926-8.58595 93.7797-8.58595L102.638-8.58595L102.638-17.3529C102.638-18.1855 103.206-18.893 104.178-18.893C105.101-18.893 105.672-18.1855 105.672-17.3529L105.672-8.58595L114.484-8.58595C115.317-8.58595 115.976-8.01465 115.976-7.04585C115.976-6.07705 115.317-5.55125 114.484-5.55125L105.672-5.55125L105.672 3.30665C105.672 4.18465 105.101 4.84675 104.178 4.84675Z"/>
  </g>
 </g>
</svg>
